<?xml version="1.0" standalone="no"?>
<!DOCTYPE svg PUBLIC "-//W3C//DTD SVG 20010904//EN"
 "http://www.w3.org/TR/2001/REC-SVG-20010904/DTD/svg10.dtd">
<svg version="1.0" xmlns="http://www.w3.org/2000/svg"
 width="2048.000000pt" height="2048.000000pt" viewBox="0 0 2048.000000 2048.000000"
 preserveAspectRatio="xMidYMid meet">
<metadata>
Created by potrace 1.16, written by Peter Selinger 2001-2019
</metadata>
<g transform="translate(0.000000,2048.000000) scale(0.100000,-0.100000)"
fill="#000000" stroke="none">
<path d="M11550 17820 c-441 -46 -796 -181 -1090 -417 -135 -108 -394 -348
-461 -429 -72 -85 -210 -284 -278 -401 -100 -169 -105 -289 -17 -378 84 -83
201 -81 300 7 30 26 95 113 171 227 149 226 198 283 385 452 182 163 287 243
398 302 432 226 1112 247 1702 50 463 -154 819 -425 1165 -888 55 -73 122
-170 149 -214 l48 -80 -18 -93 c-24 -125 -24 -351 0 -473 54 -276 197 -444
381 -447 140 -3 259 91 305 238 51 165 2 446 -126 723 -19 41 -34 81 -34 89 0
32 67 131 135 198 285 282 737 213 1197 -184 347 -300 623 -765 753 -1269 74
-285 94 -502 59 -655 -29 -128 4 -232 91 -287 23 -14 52 -42 63 -61 11 -19 51
-71 89 -115 154 -182 237 -314 303 -480 105 -271 121 -476 50 -686 -219 -653
-1012 -1083 -1897 -1028 -683 43 -1247 414 -1426 939 -48 140 -62 239 -61 435
0 166 2 187 28 270 14 50 36 101 46 115 62 79 79 147 55 219 -30 91 -127 151
-218 137 -162 -26 -279 -219 -353 -583 -4 -20 -11 -23 -53 -23 -26 0 -147 -25
-268 -55 -444 -110 -620 -130 -1018 -115 -373 13 -544 49 -769 162 -295 147
-481 352 -552 609 -29 101 -26 336 5 454 71 270 257 594 384 669 117 68 138
218 43 312 -71 71 -161 81 -274 29 -140 -64 -398 -386 -511 -638 -35 -79 -88
-240 -97 -297 -4 -22 -10 -43 -15 -46 -14 -8 -363 -62 -478 -74 -464 -46 -976
74 -1285 303 -273 202 -428 453 -482 776 -20 126 -15 392 11 511 63 288 196
531 405 741 174 175 366 293 574 353 104 30 216 35 274 11 113 -48 202 -36
265 34 81 90 73 210 -19 290 -158 139 -462 159 -786 51 -353 -118 -706 -417
-926 -782 -204 -340 -305 -760 -272 -1128 22 -248 71 -427 175 -635 230 -465
688 -798 1275 -929 196 -43 308 -57 507 -63 215 -6 368 5 597 43 81 14 150 23
152 21 3 -3 13 -40 24 -83 40 -168 96 -296 191 -434 264 -386 742 -646 1304
-710 156 -18 567 -24 715 -11 220 20 488 71 764 147 71 20 132 32 135 27 4 -4
13 -37 20 -73 37 -191 145 -437 266 -605 408 -569 1169 -893 1963 -837 658 46
1205 279 1602 681 154 155 239 274 330 456 184 373 205 692 69 1099 -79 236
-189 434 -356 641 -76 94 -179 200 -214 221 -14 8 -15 18 -3 94 71 463 -143
1173 -514 1709 -292 422 -713 760 -1107 890 -161 53 -244 66 -420 65 -140 0
-172 -4 -257 -27 -187 -50 -335 -134 -477 -271 l-83 -81 -17 25 c-45 67 -192
249 -286 353 -454 501 -996 783 -1705 888 -154 23 -556 34 -700 19z"/>
<path d="M7400 12857 c-30 -13 -111 -61 -180 -107 -256 -171 -354 -257 -449
-394 -73 -107 -96 -169 -126 -350 -52 -314 -152 -569 -357 -913 -139 -235
-170 -322 -135 -390 16 -31 69 -63 105 -63 42 0 85 44 132 135 25 50 76 135
111 190 242 370 349 634 409 1008 22 139 34 170 103 264 58 78 141 147 342
283 173 116 230 169 240 223 9 44 -15 91 -58 117 -41 26 -69 25 -137 -3z"/>
<path d="M8486 12415 c-54 -19 -109 -59 -356 -256 -118 -95 -260 -201 -315
-237 -313 -205 -424 -321 -485 -502 -12 -35 -39 -153 -61 -262 -71 -364 -139
-563 -293 -860 -81 -156 -91 -200 -62 -256 29 -55 112 -74 163 -36 16 11 49
58 74 105 25 46 65 118 89 159 135 234 230 509 295 855 59 314 79 342 396 553
74 49 214 152 310 229 96 76 214 170 263 208 49 38 101 86 117 108 54 75 32
167 -46 197 -33 13 -41 12 -89 -5z"/>
<path d="M9164 11120 c-41 -9 -102 -44 -324 -182 -378 -237 -364 -226 -519
-391 -258 -273 -401 -393 -657 -553 -241 -150 -244 -153 -244 -236 0 -77 50
-127 128 -128 36 0 47 6 80 39 21 22 94 72 162 111 301 175 408 259 680 536
196 200 210 212 330 283 241 144 450 283 480 319 38 46 46 88 27 135 -24 55
-80 82 -143 67z"/>
<path d="M5509 10481 c-51 -17 -82 -47 -167 -160 -47 -64 -124 -163 -170 -219
-46 -57 -215 -280 -376 -495 -161 -216 -375 -495 -476 -622 -452 -567 -604
-804 -755 -1177 -113 -278 -191 -605 -227 -948 -16 -161 -16 -703 0 -875 37
-380 121 -755 227 -1010 62 -151 197 -369 385 -620 161 -217 225 -287 573
-626 241 -235 358 -342 418 -382 381 -252 891 -360 1562 -328 285 13 500 31
724 61 488 65 559 83 943 232 401 156 436 171 525 217 228 119 533 334 704
497 57 54 127 117 156 139 303 231 472 392 610 580 116 159 144 187 250 251
50 29 124 81 165 114 96 78 304 282 329 324 11 17 32 41 48 52 16 12 41 45 57
74 26 48 29 63 29 149 1 120 -14 156 -109 265 -185 214 -399 373 -1026 769
-350 221 -462 310 -600 474 -39 47 -86 94 -103 105 -18 10 -44 36 -58 57 -58
87 -186 111 -293 55 -107 -55 -202 -124 -303 -220 -98 -93 -100 -96 -185 -262
-70 -138 -110 -202 -226 -357 -78 -104 -167 -232 -197 -285 -120 -207 -141
-238 -214 -330 -139 -173 -424 -433 -557 -507 -68 -39 -123 -52 -387 -94 -270
-43 -466 -50 -562 -21 -131 41 -268 143 -329 247 -60 104 -113 267 -134 411
-13 97 2 259 45 471 61 299 96 384 275 668 59 93 150 242 203 330 118 198 172
275 273 390 134 151 291 342 384 465 49 65 104 130 123 146 53 46 77 85 87
147 6 40 19 70 40 97 85 108 80 226 -15 308 -20 18 -42 32 -50 32 -8 0 -28 20
-44 44 -34 48 -511 523 -691 687 -63 58 -169 152 -235 208 -241 208 -375 333
-397 374 -34 62 -92 98 -164 103 -32 2 -71 0 -85 -5z m581 -1031 c69 -62 243
-230 387 -372 l262 -259 -71 -102 c-39 -56 -75 -106 -80 -111 -11 -14 -44 12
-283 225 -115 103 -293 274 -395 380 -201 209 -375 371 -457 427 l-53 35 77
111 c42 61 84 121 92 133 16 22 19 19 206 -166 105 -103 246 -239 315 -301z
m-881 -154 c34 -18 139 -129 332 -351 171 -198 258 -284 504 -500 99 -87 189
-166 199 -176 19 -18 18 -19 -30 -75 -143 -166 -181 -219 -343 -486 -70 -117
-172 -283 -225 -368 -164 -261 -223 -408 -290 -720 -75 -355 -86 -544 -42
-761 91 -450 291 -730 639 -894 160 -76 232 -90 452 -90 169 1 216 5 425 38
361 58 460 86 603 171 180 107 552 455 704 659 44 59 115 170 158 245 78 138
201 315 215 310 4 -2 36 -39 70 -83 84 -107 218 -239 316 -312 44 -32 177
-117 295 -187 361 -217 385 -240 601 -564 l49 -72 -57 -78 c-32 -42 -87 -108
-123 -146 -58 -60 -256 -227 -406 -341 -29 -22 -98 -84 -155 -138 -121 -115
-237 -204 -421 -322 -163 -106 -259 -153 -499 -245 -102 -40 -237 -92 -300
-116 -63 -25 -164 -58 -225 -74 -123 -33 -519 -91 -785 -115 -239 -22 -752
-31 -906 -16 -313 32 -571 113 -764 240 -65 43 -651 613 -741 721 -78 93 -206
266 -286 385 -156 233 -210 353 -272 597 -67 262 -95 456 -112 781 -19 387 13
767 91 1071 121 473 287 772 752 1352 96 121 253 321 347 447 95 125 179 227
187 227 8 0 28 -7 43 -14z m3812 -2393 c95 -128 305 -323 479 -445 36 -25 139
-92 230 -148 212 -132 455 -292 550 -364 102 -76 260 -216 260 -229 0 -16
-203 -215 -272 -266 -80 -60 -75 -64 -253 187 -71 99 -190 217 -300 293 -44
31 -170 110 -280 176 -110 66 -229 141 -265 166 -151 106 -292 245 -376 372
l-36 54 37 62 c41 70 151 199 170 199 7 0 32 -26 56 -57z"/>
<path d="M10894 9461 c-136 -47 -258 -135 -323 -232 -67 -101 -77 -181 -40
-336 38 -159 12 -239 -148 -451 -118 -156 -143 -206 -143 -287 0 -46 7 -75 29
-122 l30 -62 -27 -40 c-48 -71 -181 -217 -318 -350 -163 -157 -185 -198 -148
-276 17 -37 66 -65 111 -65 52 0 129 57 284 212 174 172 285 305 329 392 40
79 42 166 5 244 -14 30 -25 60 -25 67 0 7 43 70 95 140 103 137 166 251 190
342 22 85 19 219 -7 325 -22 88 -22 89 -3 125 24 43 100 103 178 139 52 23 65
25 126 19 54 -5 75 -3 100 9 58 30 77 104 42 162 -47 77 -190 97 -337 45z"/>
<path d="M12280 9250 c-25 -5 -83 -28 -130 -51 -123 -60 -228 -168 -292 -299
-66 -136 -78 -202 -88 -495 -9 -268 -13 -293 -71 -410 -50 -102 -150 -215
-335 -382 -96 -86 -197 -186 -224 -222 -70 -93 -85 -142 -86 -281 0 -63 -6
-133 -12 -155 -6 -22 -16 -90 -22 -151 -10 -107 -20 -154 -61 -276 -37 -110
-16 -194 57 -224 65 -27 134 9 179 96 32 62 75 236 89 362 8 73 20 149 26 168
5 19 10 85 10 146 0 106 1 113 29 150 15 22 68 76 117 119 284 254 402 389
479 549 72 148 85 221 95 516 6 213 11 265 28 317 37 115 125 223 215 263 l41
19 39 -36 c36 -32 44 -35 85 -30 36 4 53 12 75 37 27 30 29 38 25 91 -10 133
-123 208 -268 179z"/>
</g>
</svg>
